<svg id="Layer_1" data-name="Layer 1" xmlns="http://www.w3.org/2000/svg" xmlns:xlink="http://www.w3.org/1999/xlink" viewBox="0 0 300 300"><defs><style>.cls-1{fill:#1d1d1b;}.cls-2,.cls-6,.cls-9{fill:#fff;}.cls-3,.cls-4{fill:none;stroke:#1d1d1b;stroke-width:1.89px;}.cls-3,.cls-6{stroke-linecap:round;stroke-linejoin:round;}.cls-15,.cls-4,.cls-9{stroke-miterlimit:10;}.cls-5{fill:#010101;}.cls-6,.cls-9{stroke:#fff;}.cls-6{stroke-width:2.23px;}.cls-7{fill:#1b3865;}.cls-8{fill:#003b3e;}.cls-9{stroke-width:1.48px;}.cls-10{fill:#335da8;}.cls-11{fill:#426498;}.cls-12{fill:url(#linear-gradient);}.cls-13{fill:url(#linear-gradient-2);}.cls-14{fill:#1d365f;}.cls-15{stroke:#000;stroke-width:2.3px;}.cls-16{fill:#feffff;}</style><linearGradient id="linear-gradient" x1="85.83" y1="206.89" x2="119.48" y2="206.89" gradientUnits="userSpaceOnUse"><stop offset="0" stop-color="#232b57" stop-opacity="0"/><stop offset="0.97" stop-color="#101e3f"/></linearGradient><linearGradient id="linear-gradient-2" x1="180.52" y1="206.89" x2="214.17" y2="206.89" gradientUnits="userSpaceOnUse"><stop offset="0.03" stop-color="#101e3f"/><stop offset="1" stop-color="#232b57" stop-opacity="0"/></linearGradient></defs><title>Lanesalogo</title><path class="cls-1" d="M116.91,166.14c-.63-4.82-4-8.52-9.68-10.7-9.15-3.53-5.62-8.37-3.52-10.47s11.52-6.66,4-16.55c-9.43-12.37-37.14-22.61-52.13-43.58-15.14-21.18-12-33.13-5.71-47.8,1-3.76-15.2,4.4-16.35,22-9.29,1.46-11.11,14.88-9.22,25.15-6.5,2.3-6.5,13.62-4.82,20.53-4.61,3-4,21,4.19,27.67-.63,10.27,1.4,18.76,11.62,24.26,10.59,5.71,15.21,6.34,19.82,7-2.1,5.86,2.72,11.1,10.06,8.8-6.15,9.22,3.2,14.46,9.56,11.11-1.39,7.75,7,11.31,12,5.24-.52,7.09,8.24,6.07,9.7,3.07,1,3.87,8.8,3.4,8.95,0s-1-9.83,3.23-11.48,9.9,5.5,15.48,3.85l-1.73-10.34C124.82,171,120.21,164.84,116.91,166.14Z"/><path class="cls-1" d="M280.54,103.79c1.68-6.92,1.68-18.23-4.82-20.54,1.89-10.27.07-23.68-9.22-25.15-1.15-17.6-17.4-25.76-16.35-22,6.29,14.67,9.43,26.61-5.71,47.79-15,21-42.7,31.22-52.13,43.58-7.54,9.89,1.89,14.46,4,16.56s5.63,6.94-3.52,10.47c-5.64,2.17-9.05,5.88-9.68,10.7-3.3-1.31-7.91,4.8-5.45,7.75-7.34-1.26-10.48,5.45-10.48,5.45-2.67,3.35,3.17,3.25,8.75,4.9s11.24-5.5,15.48-3.85,3.07,8.09,3.23,11.47,8,3.85,8.95,0c1.46,3,10.22,4,9.7-3.07,5,6.08,13.41,2.51,12-5.24,6.36,3.35,15.71-1.89,9.56-11.11,7.34,2.31,12.16-2.93,10.06-8.8,4.61-.63,9.22-1.26,19.82-7,10.22-5.5,12.25-14,11.62-24.27C284.52,124.75,285.15,106.8,280.54,103.79Z"/><path class="cls-2" d="M87.71,131.5a1.66,1.66,0,1,0,1.66,1.65A1.65,1.65,0,0,0,87.71,131.5Z"/><path class="cls-2" d="M85.07,143.51a1.66,1.66,0,1,0,1.66,1.66A1.66,1.66,0,0,0,85.07,143.51Z"/><path class="cls-2" d="M89.37,154.45A1.66,1.66,0,1,0,91,156.11,1.66,1.66,0,0,0,89.37,154.45Z"/><path class="cls-2" d="M96,163.23a1.66,1.66,0,1,0,1.66,1.66A1.66,1.66,0,0,0,96,163.23Z"/><path class="cls-2" d="M284.32,111.53c-.13-2.29-.65-6.23-2.72-8.11a34,34,0,0,0,.53-11.77c-.69-4.54-2.53-7.62-5.35-9,1-6.41.84-15.47-3.07-21a10.48,10.48,0,0,0-6.32-4.38c-1.17-13-10.32-20.83-14.67-22.61-1.42-.58-2.46-.59-3.08,0a1.58,1.58,0,0,0-.4,1.69s0,.08,0,.12c6.13,14.29,9.31,26-5.61,46.87-8.49,11.89-21.11,20.28-32.24,27.68-8.45,5.62-15.75,10.48-19.87,15.88-7,9.17-.37,14.31,2.82,16.77a14.56,14.56,0,0,1,1.24,1c1.17,1.16,2.48,2.91,2.12,4.62s-2.17,3.09-5.31,4.3c-5.66,2.18-9.13,5.78-10.11,10.45-1.86-.09-3.73,1.26-4.89,2.87a6.37,6.37,0,0,0-1.34,4.91,9.87,9.87,0,0,0-5.59,1.56,30.57,30.57,0,0,0-12.31-.68l-5.07-21.83c5-4.79,9.94-9.89,13.48-16,10.78-18.69,9-44.12-5.13-59.33-1.53-1.25-5.37-1.25-6.81.74-13.57,19-11.44,33.35-9.54,45,.81,4.5,2,9,2.6,13.5-4,3.93-8.33,8.14-12.44,12.81a92.61,92.61,0,0,0-13.17,19.71,5.85,5.85,0,0,0-4.43-2.28c-1-4.68-4.45-8.28-10.11-10.46-3.14-1.21-5-2.69-5.31-4.3s.95-3.45,2.12-4.62a13,13,0,0,1,1.24-1c3.19-2.47,9.82-7.6,2.82-16.78C104.32,122.44,97,117.59,88.57,112c-11.13-7.4-23.75-15.79-32.24-27.67C41.41,63.43,44.59,51.7,50.72,37.41c0,0,0-.07,0-.11a1.57,1.57,0,0,0-.4-1.69c-.62-.56-1.66-.55-3.08,0-4.35,1.78-13.5,9.6-14.67,22.61a10.46,10.46,0,0,0-6.32,4.37c-3.91,5.52-4.11,14.57-3.07,21-2.82,1.35-4.66,4.44-5.35,9a33.91,33.91,0,0,0,.53,11.76c-2.07,1.89-2.59,5.82-2.72,8.11-.35,6.59,1.69,15.66,7,20.34-.48,8.8.7,18.52,12.14,24.68,9.91,5.34,14.74,6.31,19,6.92a7.63,7.63,0,0,0,1.81,7.12,8.66,8.66,0,0,0,7.58,2.29c-2.29,4.76-.34,7.79.71,9A9.29,9.29,0,0,0,73.62,185a7.41,7.41,0,0,0,4.14,7.11,7.68,7.68,0,0,0,8.16-1.23,5,5,0,0,0,3.8,3.95,7.68,7.68,0,0,0,6.51-1.3,6.06,6.06,0,0,0,4.79,2,7.38,7.38,0,0,0,.82,0c2.64-.27,4.4-1.67,4.49-3.57,0-.68,0-1.47,0-2.3-.08-3.23-.18-7.24,2.63-8.34,1.63-.63,3.82.51,6.13,1.71.61.32,1.23.64,1.86,1a39.86,39.86,0,0,0,1.82,18.56c6.75,16.76,33,28.5,48.73,19.28,5.33,17.93,8.75,49.06-22.8,39.64a12.93,12.93,0,0,1-2.65-1.5c7.07,1.55,13.9-4.35,13.71-12.27-.17-6.73-5.45-12.1-11.75-11.94-16.34.41-13.87,27.38,3.48,29.39,27.74,5.1,29.22-20.37,22.3-44.14,2.35-1.85,13.7-7.65,15.66-20.13.74-7.42-.33-13.28-2.68-17.7.74-.34,1.46-.72,2.16-1.08,2.31-1.21,4.5-2.35,6.13-1.71,2.81,1.09,2.71,5.11,2.63,8.34,0,.83,0,1.61,0,2.3.09,1.9,1.85,3.3,4.49,3.57.27,0,.54,0,.82,0a6.06,6.06,0,0,0,4.79-2,7.72,7.72,0,0,0,6.51,1.3,5,5,0,0,0,3.8-3.95,7.72,7.72,0,0,0,8.16,1.23,7.43,7.43,0,0,0,4.14-7.12,9.31,9.31,0,0,0,9.65-2.24c1.05-1.16,3-4.2.71-9a8.66,8.66,0,0,0,7.58-2.28,7.64,7.64,0,0,0,1.81-7.12c4.31-.62,9.14-1.58,19.05-6.92,11.44-6.16,12.62-15.88,12.14-24.68C282.63,127.19,284.67,118.11,284.32,111.53ZM152.72,96.24c2.17-5.11,5.37-10.7,9.5-9.9,6.69,1.62,8.48,12.91,5.27,23-3,9.39-15.82,23.36-18.21,24.17C147.72,125.72,147.93,107.5,152.72,96.24ZM126.33,202.91a5.91,5.91,0,0,1-.8-3.3c-4-22.37,12.11-34.13,25.56-46.78l4.64,20c-16.81,3.6-24.54,28.22-8.19,36.06,1.86.88,2,.37.67-1.24-7.11-8.42-2.38-23.32,10-24.37,2.89,12.45,5.48,23.56,8.36,36C151.5,227.16,131.9,221.11,126.33,202.91Zm42.36,15c-2.81-12.07-5.32-22.87-8.07-34.74C181,182.39,183.74,207.9,168.69,217.92Z"/><path class="cls-2" d="M212.29,133.87a1.66,1.66,0,1,0-1.66-1.66A1.66,1.66,0,0,0,212.29,133.87Z"/><path class="cls-2" d="M214.93,145.88a1.66,1.66,0,1,0-1.66-1.65A1.65,1.65,0,0,0,214.93,145.88Z"/><path class="cls-2" d="M210.63,156.82a1.66,1.66,0,1,0-1.65-1.66A1.66,1.66,0,0,0,210.63,156.82Z"/><path class="cls-2" d="M196.57,173.43a1.66,1.66,0,1,0-1.65-1.66A1.66,1.66,0,0,0,196.57,173.43Z"/><path class="cls-3" d="M122.36,173.9c2.46-3-2.15-9.06-5.45-7.76-.63-4.82-4-8.52-9.68-10.7-9.15-3.53-5.62-8.37-3.52-10.47s11.52-6.66,4-16.55c-9.43-12.37-37.14-22.61-52.13-43.58-15.14-21.18-12-33.13-5.71-47.8,1-3.76-15.2,4.4-16.35,22-9.29,1.46-11.11,14.88-9.22,25.15-6.5,2.3-6.5,13.62-4.82,20.53-4.61,3-4,21,4.19,27.67-.63,10.27,1.4,18.76,11.62,24.26,10.59,5.71,15.21,6.34,19.82,7-2.1,5.86,2.72,11.1,10.06,8.8-6.15,9.22,3.2,14.46,9.56,11.11-1.39,7.75,7,11.31,12,5.24-.52,7.09,8.24,6.07,9.7,3.07,1,3.87,8.8,3.4,8.95,0s-1-9.83,3.23-11.48,9.9,5.5,15.48,3.85"/><path class="cls-3" d="M106.89,181.61s-3.92-.69,2-7.4c-4.73,7.41-15.51-.83-7.12-6.39-11.32,6.24-13-6.49-5.77-9-11.73,6.81-17.29-7-5.24-8-16.66,2.31-10.89-16.55-.1-10.9-16-5.76-2.93-19.7,3.94-10.06"/><path class="cls-4" d="M96.43,191.85s1.27-13.07,8.74-14.48"/><path class="cls-4" d="M86.73,188.78S91.52,174,98.52,170.29"/><path class="cls-4" d="M74.71,183.54s6.1-12.25,16.81-16"/><path class="cls-4" d="M65.15,172.43s10.82-9.8,24.22-11.76"/><path class="cls-4" d="M55.09,163.63s6.28-11.37,28.91-7.31"/><path class="cls-4" d="M70.36,155.7s-26.91-2.87-46.71-23.3"/><path class="cls-4" d="M79.94,145.54s-13.54,0-22.13-5.6S45,148.35,54.38,151.69"/><path class="cls-4" d="M85.87,138.17s-11.82-1.27-29.63-15.41c-11.54-7.44-11.74,9.9,1.57,17.18"/><path class="cls-4" d="M86.55,127.26S73.32,119,65.15,111.13,44.54,115.91,59,124.89"/><path class="cls-4" d="M33.5,59.05s-3.29,28,23.56,50"/><path class="cls-4" d="M24.28,84.2s2.83,18.9,26.3,37"/><path class="cls-4" d="M19.46,104.73s14.9,25.4,34.47,33.33"/><circle class="cls-1" cx="87.71" cy="133.15" r="1.66"/><circle class="cls-1" cx="85.07" cy="145.17" r="1.66"/><circle class="cls-1" cx="89.37" cy="156.11" r="1.66"/><circle class="cls-1" cx="96.04" cy="164.89" r="1.66"/><circle class="cls-1" cx="103.43" cy="172.72" r="1.66"/><path class="cls-3" d="M167.16,178.4s3.14-6.71,10.48-5.45c-2.46-2.95,2.15-9.06,5.45-7.75.63-4.82,4-8.53,9.68-10.7,9.15-3.53,5.62-8.38,3.52-10.47s-11.52-6.67-4-16.56c9.43-12.36,37.14-22.6,52.13-43.58,15.14-21.18,12-33.12,5.71-47.79-1.05-3.76,15.2,4.4,16.35,22,9.29,1.47,11.11,14.88,9.22,25.15,6.5,2.31,6.5,13.62,4.82,20.54,4.61,3,4,21-4.19,27.66.63,10.27-1.4,18.77-11.62,24.27-10.59,5.7-15.21,6.33-19.82,7,2.1,5.87-2.72,11.11-10.06,8.8,6.15,9.22-3.2,14.46-9.56,11.11,1.39,7.75-7,11.32-12,5.24.52,7.1-8.24,6.08-9.7,3.07-1,3.87-8.8,3.4-8.95,0s1-9.82-3.23-11.47-9.9,5.5-15.48,3.85S164.49,181.75,167.16,178.4Z"/><path class="cls-3" d="M193.11,180.66s3.92-.68-2-7.4c4.73,7.42,15.51-.83,7.12-6.39,11.32,6.25,13.05-6.49,5.77-9,11.73,6.81,17.29-7,5.24-8,16.66,2.3,10.89-16.56.1-10.9,16-5.76,2.93-19.7-3.94-10.06"/><path class="cls-4" d="M203.57,190.9s-1.27-13.07-8.74-14.48"/><path class="cls-4" d="M213.27,187.83s-4.79-14.82-11.79-18.49"/><path class="cls-4" d="M225.29,182.59s-6.1-12.25-16.81-16"/><path class="cls-4" d="M234.85,171.48s-10.82-9.79-24.22-11.76"/><path class="cls-4" d="M244.91,162.68s-6.28-11.37-28.91-7.31"/><path class="cls-4" d="M229.64,154.75s26.91-2.86,46.71-23.3"/><path class="cls-4" d="M220.06,144.59s13.54,0,22.13-5.59,12.83,8.4,3.43,11.74"/><path class="cls-4" d="M214.13,137.22S226,136,243.76,121.81c11.54-7.43,11.74,9.91-1.57,17.19"/><path class="cls-4" d="M213.45,126.32s13.23-8.28,21.4-16.14S255.46,115,241,123.94"/><path class="cls-4" d="M266.5,58.1s3.29,28-23.56,50"/><path class="cls-4" d="M275.72,83.25s-2.83,18.91-26.3,37"/><path class="cls-4" d="M280.54,103.79s-14.9,25.4-34.47,33.32"/><circle class="cls-1" cx="212.29" cy="132.21" r="1.66"/><circle class="cls-1" cx="214.93" cy="144.23" r="1.66"/><circle class="cls-1" cx="210.63" cy="155.16" r="1.66"/><circle class="cls-1" cx="203.96" cy="163.94" r="1.66"/><circle class="cls-1" cx="196.57" cy="171.77" r="1.66"/><path class="cls-5" d="M118.76,202.49c6.75,16.76,33,28.5,48.73,19.28,5.33,17.93,8.75,49.06-22.8,39.64a12.93,12.93,0,0,1-2.65-1.5c7.07,1.55,13.9-4.35,13.71-12.27-.17-6.73-5.45-12.1-11.75-11.94-16.34.41-13.87,27.38,3.48,29.39,27.74,5.1,29.22-20.37,22.3-44.14,2.35-1.85,13.7-7.65,15.66-20.13,2.18-21.93-11.36-30.22-27.25-28.09l-5.07-21.83c5-4.79,9.94-9.89,13.48-16,10.78-18.69,9-44.12-5.13-59.33-1.53-1.25-5.37-1.25-6.81.74-13.57,19-11.44,33.35-9.54,45,.81,4.5,2,9,2.6,13.5-4,3.93-8.33,8.14-12.44,12.81C122.9,162.06,111.7,182.25,118.76,202.49Zm49.93,15.43c-2.81-12.07-5.32-22.87-8.07-34.74C181,182.39,183.74,207.9,168.69,217.92Zm-16-121.68c2.17-5.11,5.37-10.7,9.5-9.9,6.69,1.62,8.48,12.91,5.27,23-3,9.39-15.82,23.36-18.21,24.17C147.72,125.72,147.93,107.5,152.72,96.24Zm-1.63,56.59,4.64,20c-16.81,3.6-24.54,28.22-8.19,36.06,1.86.88,2,.37.67-1.24-7.11-8.42-2.38-23.32,10-24.37,2.89,12.45,5.48,23.56,8.36,36-15,8-34.63,1.91-40.2-16.29a5.91,5.91,0,0,1-.8-3.3C121.53,177.24,137.64,165.48,151.09,152.83Z"/><path class="cls-6" d="M149.87,161.93h-8.13c.14,5.7.21,8.57.35,14.26l-2.32-3.78-4.71-7.78L132.44,162l-11,.07q0,8.46-.08,16.91l-4.56-14.16-5.84-2.65c-4.77.05-7.15.08-11.92.15q-4.14,12.15-8,24.39l-.91.19h0l-2,.26v-21.9l-10.87-2.56-8.6.18,0,35.13c8.11-1.8,12.54-2.67,20.07-3.89h0l1.06-.17,1.13-.18h0c2.21-.36,3.87-.61,6.56-1l7.85-1.93,1.52-5.26,2.59-.23c.65,2.31,1,3.46,1.63,5.75,3.6-.37,5.4-.54,9-.83l1.29-.45v.35c3.26-.25,4.89-.36,8.15-.54l3.07-1.46c0-4.93-.07-7.76-.11-12.09,2.9,4.59,4.94,7.75,8.38,13.1,3.63-.09,5.44-.11,9.08-.11v-1.37h0V164.6h0Z"/><path class="cls-6" d="M222.19,162.65l-11.92-.22-9,2.61c-1.15,3.54-2.33,7.07-3.5,10.61-4.06-3-10-3.39-10.68-5.56,2.14.15,3.89.32,3.89.32l7.2-1.65c.67-2.62,1-3.94,1.67-6.59,0,0-4.22-.37-12.88-.45a11.35,11.35,0,0,0-5,1v0l-4.88,2.65-.08,0-.23.12h0a7.52,7.52,0,0,0-.75.5c.22-1.26.4-2.35.68-4-8.73-.07-13.09-.09-21.82-.1l-.73,2.68q0,11.55,0,23.09l.74,1.38c8.87.12,13.31.31,22.18.95,0-.46-.08-.87-.12-1.27.32.09.66.18,1,.26.77.39,4.23,1.92,11.67,2.73a14.83,14.83,0,0,0,6.63-.6l3.91,1.28c3.5.47,5.25.73,8.75,1.28.61-2.07,1-3.28,1.49-5.12.43,1.81.71,3,1.2,5.1l10.82,2.42c3.57.71,5.35,1.08,8.91,1.87Q227.05,180.25,222.19,162.65Zm-48.27,9.83c-3.83-.11-6.17-.16-10.39-.23,0-1,0-1.71,0-2.46,2.9,0,4.92.07,8.31.14l2.27-1a8.15,8.15,0,0,0-.31,2.3A6.53,6.53,0,0,0,173.92,172.48Zm6.19,10.05-4.49-.4c-.19.53-.35,1-.51,1.43l-2.54-.38c-3.69-.21-5.84-.31-9-.41,0-1.59,0-2.57,0-4.2,2.57.07,4.41.14,7.46.27l3.69-.18c.15-1.46.25-2.49.36-3.59,3.14,4.2,11.07,4.54,11.09,7.28a1.76,1.76,0,0,1-1.47,1.81A22.59,22.59,0,0,1,180.11,182.53Z"/><path class="cls-7" d="M99.69,191.66c-7.6,1.22-11.39,1.94-18.93,3.61q0-14.94,0-29.88l7.32-.16c0,8.87,0,13.3-.07,22.17,4.49-.71,6.74-1,11.24-1.61C99.44,188.15,99.52,189.32,99.69,191.66Z"/><path class="cls-7" d="M124.49,188.7c-3.07.24-4.6.38-7.66.7l-1.39-4.89c-3.44.31-5.16.48-8.59.86-.63,2.17-.95,3.26-1.58,5.45-3,.43-4.46.65-7.44,1.15q4.22-13.59,8.81-27.06c4-.06,6.08-.08,10.14-.12Q120.51,176.78,124.49,188.7Zm-10.29-9.14c-.73-3-1.1-4.51-1.83-7.55l-1.73.07c-.9,3.14-1.36,4.72-2.27,7.93C110.7,179.81,111.87,179.72,114.2,179.56Z"/><path class="cls-7" d="M149.89,187.68c-3.09,0-4.64,0-7.73.09-3.59-5.59-5.38-8.37-8.95-14l-.82,0c.05,5.77.08,8.65.13,14.4-2.78.16-4.16.25-6.94.46q.06-12,.11-23.91l9.37-.06c2.95,4.9,4.43,7.32,7.39,12.14h.82l-.3-12.16h6.92Z"/><path class="cls-7" d="M173.05,188.51c-7.54-.55-11.32-.71-18.87-.81q0-11.55,0-23.09c7.43,0,11.14,0,18.56.08-.35,2.1-.53,3.15-.89,5.24-4.13-.09-6.2-.12-10.33-.17,0,1.45,0,2.18,0,3.63,4,.06,6,.11,10,.23-.21,2.09-.32,3.13-.53,5.22-3.79-.17-5.69-.23-9.48-.32,0,1.68,0,2.51,0,4.19,4.42.13,6.63.22,11,.47C172.76,185.31,172.86,186.38,173.05,188.51Z"/><path class="cls-7" d="M183.77,190c-7.29-.79-10.09-2.39-10.09-2.39.78-2.17,1.16-3.26,1.94-5.45a22.79,22.79,0,0,0,8,2.09c2.1.18,2.5-1.1,2.5-1.87,0-3.41-12.31-3.1-12.35-11.15,0-4.58,3.2-6.81,7.66-6.77,7.37.07,11,.38,11,.38-.57,2.26-.86,3.38-1.43,5.6,0,0-4.09-.41-7.46-.51-1.63-.05-2,.4-2,1.28,0,3.27,12.34,2.13,12.39,11.54C193.89,188,190,190.65,183.77,190Z"/><path class="cls-7" d="M219.24,195.27c-3-.67-4.54-1-7.57-1.58-.57-2.43-.85-3.64-1.42-6-3.42-.53-5.13-.78-8.56-1.24-.61,2.11-.91,3.15-1.52,5.22-3-.47-4.46-.69-7.45-1.09q4.4-12.74,8.55-25.51c4.06.06,6.08.1,10.14.18Q215.54,180.19,219.24,195.27ZM209,181.76c-.75-3.52-1.13-5.26-1.89-8.7l-1.72-.11c-.88,3.3-1.32,4.93-2.19,8.16Z"/><polygon class="cls-7" points="77.23 162.67 88.09 165.23 88.09 188.3 76.3 190.59 77.23 162.67"/><polygon class="cls-7" points="110.94 162.14 116.78 164.78 124.49 188.7 120.01 190.25 118.25 187.11 110.94 162.14"/><polygon class="cls-7" points="97.42 192.75 105.27 190.82 109.21 170.92 104.8 168.28 102.05 168.71 95.82 190.84 97.42 192.75"/><polygon class="cls-7" points="129.45 189.61 132.52 188.16 131.64 175.33 126.81 174.97 127.36 188.51 129.45 189.61"/><polygon class="cls-8" points="132.44 161.97 135.06 164.64 139.78 172.43 129.34 177.35 128.53 166.01 132.44 161.97"/><polygon class="cls-8" points="154.16 164.61 154.89 161.93 154.92 189.08 154.18 187.7 154.16 164.61"/><polygon class="cls-8" points="171.83 169.93 175.66 168.19 170.86 166.37 169.82 169.02 171.83 169.93"/><polygon class="cls-8" points="174.69 178.66 171 178.84 170.05 177.92 173.68 177.35 174.69 178.66"/><polygon class="cls-8" points="176.53 183.77 172.57 183.18 170.7 184.54 172.7 184.85 176.53 183.77"/><polygon class="cls-8" points="180.11 182.53 175.62 182.13 176.41 185.5 180.75 185.71 180.11 182.53"/><path class="cls-8" d="M191,170.41l7.2-1.65s-3.81-1.84-4.31-1.94a33.38,33.38,0,0,0-3.34,0l-.83,2.49Z"/><polygon class="cls-8" points="181.97 162.69 176.78 165.5 176.41 167.7 180.93 168.03 181.97 162.69"/><polygon class="cls-7" points="210.27 162.43 201.27 165.03 203.16 174.6 198.45 188.3 192.9 190.03 200.23 192.43 209.82 171.73 210.27 162.43"/><path class="cls-7" d="M222.49,196.11l-10.82-2.42,1.05-14.36s1.25-6.07,1.2-6.38,0-4.36,0-4.36l2.59-.44,4,4.22s6,14.17,6,14.74S222.49,196.11,222.49,196.11Z"/><path class="cls-9" d="M90.86,193.74C81.93,195.16,77.47,196,68.6,198l0-35.13,8.6-.18c0,10.42,0,15.63-.07,26.06,5.27-.84,7.91-1.22,13.2-1.9Z"/><path class="cls-9" d="M120,190.25c-3.6.29-5.4.46-9,.83-.65-2.29-1-3.44-1.63-5.75-4,.36-6.07.56-10.11,1-.74,2.55-1.11,3.83-1.85,6.41-3.5.5-5.25.77-8.75,1.34q5-16,10.35-31.8c4.77-.07,7.15-.1,11.92-.15Q115.35,176.24,120,190.25Zm-12.1-10.75c-.86-3.52-1.29-5.29-2.14-8.87l-2,.09c-1.07,3.69-1.61,5.55-2.67,9.32C103.8,179.81,105.17,179.7,107.91,179.5Z"/><path class="cls-9" d="M149.87,189.05c-3.64,0-5.45,0-9.08.11-4.23-6.57-6.33-9.84-10.53-16.5l-1,0,.15,16.93c-3.26.18-4.89.29-8.15.54l.12-28.11,11-.07c3.46,5.77,5.2,8.6,8.69,14.28l1,0-.35-14.29h8.13Z"/><path class="cls-9" d="M177.1,190c-8.87-.64-13.31-.83-22.18-.95l0-27.15c8.73,0,13.09,0,21.82.1l-1.05,6.16c-4.85-.11-7.28-.14-12.14-.2,0,1.71,0,2.56,0,4.26,4.71.08,7.07.13,11.78.27-.25,2.46-.37,3.69-.62,6.14-4.46-.19-6.69-.26-11.15-.37,0,2,0,3,0,4.92,5.2.15,7.79.26,13,.56C176.76,186.27,176.87,187.52,177.1,190Z"/><path class="cls-9" d="M189.69,191.75c-8.57-.93-11.85-2.82-11.85-2.82.91-2.54,1.36-3.82,2.27-6.4a27,27,0,0,0,9.44,2.46c2.46.21,2.94-1.3,2.93-2.2,0-4-14.47-3.65-14.51-13.11,0-5.38,3.76-8,9-8,8.66.08,12.88.45,12.88.45-.67,2.65-1,4-1.67,6.59,0,0-4.81-.49-8.77-.61-1.93-.06-2.41.47-2.4,1.51,0,3.84,14.5,2.5,14.56,13.56C201.6,189.4,197,192.54,189.69,191.75Z"/><path class="cls-9" d="M231.4,198c-3.56-.79-5.34-1.16-8.91-1.87-.66-2.85-1-4.27-1.66-7.07-4-.63-6-.93-10.07-1.47-.71,2.48-1.07,3.71-1.78,6.14-3.5-.55-5.25-.81-8.75-1.28q5.15-15,10-30l11.92.22Q227.05,180.25,231.4,198ZM219.31,182.1c-.88-4.14-1.33-6.19-2.22-10.24l-2-.13c-1,3.89-1.54,5.81-2.57,9.6C215.22,181.62,216.59,181.77,219.31,182.1Z"/><path class="cls-10" d="M90.86,193.74C81.93,195.16,77.47,196,68.6,198l0-35.13,8.6-.18c0,10.42,0,15.63-.07,26.06,5.27-.84,7.91-1.22,13.2-1.9Z"/><path class="cls-10" d="M120,190.25c-3.6.29-5.4.46-9,.83-.65-2.29-1-3.44-1.63-5.75-4,.36-6.07.56-10.11,1-.74,2.55-1.11,3.83-1.85,6.41-3.5.5-5.25.77-8.75,1.34q5-16,10.35-31.8c4.77-.07,7.15-.1,11.92-.15Q115.35,176.24,120,190.25Zm-12.1-10.75c-.86-3.52-1.29-5.29-2.14-8.87l-2,.09c-1.07,3.69-1.61,5.55-2.67,9.32C103.8,179.81,105.17,179.7,107.91,179.5Z"/><path class="cls-10" d="M149.87,189.05c-3.64,0-5.45,0-9.08.11-4.23-6.57-6.33-9.84-10.53-16.5l-1,0,.15,16.93c-3.26.18-4.89.29-8.15.54l.12-28.11,11-.07c3.46,5.77,5.2,8.6,8.69,14.28l1,0-.35-14.29h8.13Z"/><path class="cls-10" d="M177.1,190c-8.87-.64-13.31-.83-22.18-.95l0-27.15c8.73,0,13.09,0,21.82.1l-1.05,6.16c-4.85-.11-7.28-.14-12.14-.2,0,1.71,0,2.56,0,4.26,4.71.08,7.07.13,11.78.27-.25,2.46-.37,3.69-.62,6.14-4.46-.19-6.69-.26-11.15-.37,0,2,0,3,0,4.92,5.2.15,7.79.26,13,.56C176.76,186.27,176.87,187.52,177.1,190Z"/><path class="cls-10" d="M189.69,191.75c-8.57-.93-11.85-2.82-11.85-2.82.91-2.54,1.36-3.82,2.27-6.4a27,27,0,0,0,9.44,2.46c2.46.21,2.94-1.3,2.93-2.2,0-4-14.47-3.65-14.51-13.11,0-5.38,3.76-8,9-8,8.66.08,12.88.45,12.88.45-.67,2.65-1,4-1.67,6.59,0,0-4.81-.49-8.77-.61-1.93-.06-2.41.47-2.4,1.51,0,3.84,14.5,2.5,14.56,13.56C201.6,189.4,197,192.54,189.69,191.75Z"/><path class="cls-10" d="M231.4,198c-3.56-.79-5.34-1.16-8.91-1.87-.66-2.85-1-4.27-1.66-7.07-4-.63-6-.93-10.07-1.47-.71,2.48-1.07,3.71-1.78,6.14-3.5-.55-5.25-.81-8.75-1.28q5.15-15,10-30l11.92.22Q227.05,180.25,231.4,198ZM219.31,182.1c-.88-4.14-1.33-6.19-2.22-10.24l-2-.13c-1,3.89-1.54,5.81-2.57,9.6C215.22,181.62,216.59,181.77,219.31,182.1Z"/><polygon class="cls-10" points="90.09 186.87 93.51 186.15 92.08 189.46 88.67 190.51 90.09 186.87"/><path class="cls-2" d="M60.61,230.59l-3.28.83c-.9-3.5-1.35-5.24-2.24-8.74l3.36-.84C59.31,225.34,59.75,227.09,60.61,230.59Z"/><path class="cls-2" d="M69,219.39c.76,3.53,1.15,5.29,1.91,8.82l-3.12.69c-1.48-1.56-2.22-2.34-3.73-3.89.42,1.8.63,2.7,1.06,4.51l-3,.71c-.85-3.5-1.27-5.25-2.13-8.76l3.36-.8c1.45,1.55,2.17,2.33,3.59,3.9l-1-4.49Z"/><path class="cls-2" d="M78.76,223.5c.42,2.17-.86,3.42-3.12,3.88a9.52,9.52,0,0,1-3.7.08c0-1,0-1.5,0-2.5a6.11,6.11,0,0,0,3,.13c.55-.12.68-.29.65-.48-.14-.65-4.11.73-4.8-2.61-.4-2,.86-3.36,3.09-3.82a11.79,11.79,0,0,1,3.46-.16c0,1,0,1.5-.06,2.49a6.66,6.66,0,0,0-2.69,0c-.44.09-.71.21-.65.48C74.08,221.62,78.16,220.37,78.76,223.5Z"/><path class="cls-2" d="M85.48,225.34c-1.33.23-2,.35-3.32.6-.47-2.54-.71-3.8-1.18-6.34l-2.48.47L78,217.54c3.35-.64,5-.95,8.4-1.52.17,1,.25,1.53.43,2.54l-2.49.43C84.81,221.53,85,222.8,85.48,225.34Z"/><path class="cls-2" d="M97.22,223.46l-3.31.49c-1-2.71-1.36-2.64-2.36-2.48.17,1.11.26,1.67.44,2.78l-3.2.52c-.59-3.52-.88-5.28-1.47-8.8a23.15,23.15,0,0,1,3.35-.82c2.54-.4,5.12-.13,5.48,2.35a2.48,2.48,0,0,1-1.26,2.56C95.64,220.09,96.47,220.81,97.22,223.46Zm-4.32-5.28c-.11-.74-1-.76-1.59-.67l-.39.09.28,1.78a1.65,1.65,0,0,0,.3,0C92.06,219.26,93,219,92.9,218.18Z"/><path class="cls-2" d="M105.46,213.29c.26,2.17.39,3.25.64,5.42.3,2.55-1.12,3.89-3.74,4.23s-4.33-.6-4.69-3.14c-.3-2.16-.46-3.24-.76-5.4l3.42-.47.7,5.37c.09.64.28,1.1,1,1s.78-.6.7-1.23c-.27-2.14-.41-3.22-.68-5.37Z"/><path class="cls-2" d="M116.91,212.12c.32,3.59.47,5.39.79,9l-3.12.29c-.18-1.83-.26-2.75-.44-4.58-.6,1.21-.89,1.82-1.48,3h-.07c-.81-1.08-1.22-1.62-2-2.69.19,1.83.29,2.74.48,4.58l-3.11.34c-.41-3.59-.62-5.38-1-9l3.44-.38,1.86,2.77c.51-1.23.76-1.85,1.28-3.08C114.85,212.3,115.54,212.24,116.91,212.12Z"/><path class="cls-2" d="M122,214.25l.06.79c1.38-.11,2.08-.15,3.47-.24l.15,2.34-3.45.24.06.82,3.93-.27c.07,1,.1,1.51.17,2.52-2.87.18-4.31.29-7.17.53l-.75-9c2.93-.25,4.4-.35,7.34-.54.06,1,.1,1.52.16,2.53C124.35,214.08,123.56,214.13,122,214.25Z"/><path class="cls-2" d="M136.29,210.92c.13,3.61.2,5.41.33,9l-3.18.13c-1.17-1.8-1.77-2.7-3-4.49.1,1.85.15,2.77.24,4.62l-3.07.18c-.21-3.6-.32-5.4-.54-9l3.42-.2c1.14,1.79,1.71,2.68,2.83,4.48-.09-1.84-.13-2.76-.21-4.6Z"/><path class="cls-2" d="M143.32,219.75c-1.34,0-2,0-3.35.08-.08-2.58-.11-3.87-.18-6.44l-2.51.07c0-1-.06-1.54-.09-2.57,3.4-.12,5.1-.16,8.5-.2,0,1,0,1.55,0,2.58l-2.52,0C143.25,215.88,143.28,217.17,143.32,219.75Z"/><path class="cls-2" d="M156.07,215.22c0,2.92-2.06,4.65-5,4.64s-5-1.74-5-4.66,2-4.71,5-4.7S156.12,212.3,156.07,215.22Zm-3.42,0c0-1.33-.51-2.09-1.55-2.1s-1.57.76-1.57,2.1.53,2.09,1.56,2.09S152.64,216.52,152.65,215.18Z"/><path class="cls-2" d="M164.3,216.92c-.08,2.21-1.61,3.14-3.9,3.08a9.51,9.51,0,0,1-3.6-.76l.57-2.44a6,6,0,0,0,2.88.8c.55,0,.72-.12.73-.31,0-.67-4.14-.22-4.06-3.63.05-2,1.59-3.08,3.85-3a11.56,11.56,0,0,1,3.4.63c-.25,1-.38,1.44-.63,2.41a6.52,6.52,0,0,0-2.6-.62c-.44,0-.73.05-.74.31C160.18,214,164.42,213.73,164.3,216.92Z"/><path class="cls-2" d="M178.84,211.74c-.27,3.6-.41,5.4-.68,9l-3.12-.22.31-4.59c-.79,1.1-1.18,1.65-1.95,2.76h-.08c-.62-1.2-.94-1.79-1.58-3-.1,1.83-.15,2.75-.26,4.59l-3.12-.16c.17-3.61.26-5.41.43-9l3.45.18c.56,1.22.84,1.82,1.39,3,.7-1.14,1.05-1.71,1.76-2.84Z"/><path class="cls-2" d="M188.85,212.62l-.55,5.43c-.26,2.55-1.94,3.55-4.57,3.32s-4.09-1.53-3.89-4.08c.18-2.18.26-3.26.43-5.44l3.43.29c-.19,2.15-.28,3.23-.47,5.39-.06.64,0,1.13.74,1.19s.9-.41,1-1l.5-5.39Z"/><path class="cls-2" d="M196.77,219.55c-.27,2.19-1.88,3-4.16,2.72a9.15,9.15,0,0,1-3.52-1.07l.78-2.37a6,6,0,0,0,2.8,1c.55.06.73-.07.76-.25.07-.66-4.12-.58-3.74-4,.23-2,1.85-2.93,4.11-2.68a11.83,11.83,0,0,1,3.33.93c-.34.93-.5,1.4-.83,2.34a6.57,6.57,0,0,0-2.54-.84c-.45,0-.74,0-.77.25C192.91,216.31,197.17,216.38,196.77,219.55Z"/><path class="cls-2" d="M200.81,223.13l-3.34-.44,1.15-8.95,3.41.45C201.54,217.77,201.3,219.55,200.81,223.13Z"/><path class="cls-2" d="M209.59,221.58c.1,1,.16,1.5.26,2.5a9.91,9.91,0,0,1-3.22.07c-2.83-.44-4.5-2.47-4.09-5.33s2.61-4.37,5.51-3.93a9.81,9.81,0,0,1,3.11,1.06l-1,2.29a4.57,4.57,0,0,0-1.64-.6,2,2,0,0,0-2.53,1.67c-.19,1.27.5,2.12,1.91,2.34A4.37,4.37,0,0,0,209.59,221.58Z"/><path class="cls-2" d="M219.85,226.23l-3.32-.61c-.05-.62-.07-.93-.12-1.55l-2.56-.45c-.25.57-.38.85-.64,1.42l-3.33-.56c1.78-3.36,2.68-5,4.52-8.39l4,.71C219,220.58,219.32,222.46,219.85,226.23Zm-5.09-4.59,1.47.25c-.1-1.14-.15-1.71-.26-2.86C215.49,220.07,215.24,220.59,214.76,221.64Z"/><path class="cls-2" d="M224.23,224.51l3.27.67c-.21,1-.31,1.49-.52,2.48-2.62-.55-3.93-.81-6.56-1.32l1.7-8.85,3.39.66C225,220.69,224.75,222,224.23,224.51Z"/><path class="cls-2" d="M232.46,222.21l-.17.77,3.41.77c-.21.92-.32,1.37-.53,2.29-1.36-.32-2-.47-3.39-.77l-.18.81c1.55.34,2.32.52,3.86.88-.22,1-.34,1.47-.57,2.45-2.81-.65-4.22-1-7-1.57.75-3.53,1.13-5.29,1.88-8.82,2.89.62,4.33.94,7.22,1.61-.23,1-.35,1.48-.58,2.47C234.8,222.73,234,222.56,232.46,222.21Z"/><path class="cls-2" d="M243.84,228.49c-.55,2.14-2.25,2.72-4.49,2.17a9.43,9.43,0,0,1-3.38-1.52l1.08-2.25a6.1,6.1,0,0,0,2.66,1.4c.54.13.74,0,.79-.15.16-.65-4-1.1-3.23-4.42.48-1.95,2.22-2.67,4.43-2.13a11.79,11.79,0,0,1,3.21,1.34c-.45.89-.67,1.34-1.12,2.22a6.79,6.79,0,0,0-2.43-1.16c-.44-.1-.74-.11-.8.15C240.41,224.78,244.64,225.4,243.84,228.49Z"/><path class="cls-11" d="M145.83,216.2c3.39,1.06,5.06,1.61,8.34,2.75-.25-1.42-.37-2.13-.62-3.55C150.45,215.69,148.91,215.85,145.83,216.2Z"/><path class="cls-11" d="M145.83,219c.25-1.42.37-2.13.62-3.55,3.1.29,4.64.45,7.72.8C150.78,217.26,149.11,217.81,145.83,219Z"/><path class="cls-10" d="M119.48,210.84c-10,1-19.77,2.34-29.5,4.07q3.69-3.81,7.69-7.5c-3.91-1.44-7.83-2.83-11.84-4.18,10.4-1.84,20.8-3.28,31.54-4.35Q118.42,204.87,119.48,210.84Z"/><path class="cls-12" d="M119.48,210.84c-10,1-19.77,2.34-29.5,4.07q3.69-3.81,7.69-7.5c-3.91-1.44-7.83-2.83-11.84-4.18,10.4-1.84,20.8-3.28,31.54-4.35Q118.42,204.87,119.48,210.84Z"/><path class="cls-10" d="M182.63,198.88c10.74,1.07,21.14,2.51,31.54,4.35-4,1.35-7.93,2.74-11.84,4.18q4,3.69,7.69,7.5c-9.73-1.73-19.46-3.07-29.5-4.07Q181.57,204.86,182.63,198.88Z"/><path class="cls-13" d="M182.63,198.88c10.74,1.07,21.14,2.51,31.54,4.35-4,1.35-7.93,2.74-11.84,4.18q4,3.69,7.69,7.5c-9.73-1.73-19.46-3.07-29.5-4.07Q181.57,204.86,182.63,198.88Z"/><path class="cls-14" d="M188.86,208.09a363.18,363.18,0,0,0-77.72,0l-2.64-11.9a385.12,385.12,0,0,1,83,0Z"/><path class="cls-15" d="M168.15,207.53a244.35,244.35,0,0,0-36.3,0,7.39,7.39,0,0,1-8-6.52h0a7.28,7.28,0,0,1,6.91-7.86,254.52,254.52,0,0,1,38.46,0,7.28,7.28,0,0,1,6.91,7.86h0A7.4,7.4,0,0,1,168.15,207.53Z"/><path class="cls-2" d="M168.15,207.53a244.35,244.35,0,0,0-36.3,0,7.39,7.39,0,0,1-8-6.52h0a7.28,7.28,0,0,1,6.91-7.86,254.52,254.52,0,0,1,38.46,0,7.28,7.28,0,0,1,6.91,7.86h0A7.4,7.4,0,0,1,168.15,207.53Z"/><path class="cls-5" d="M167.84,206.4a244.21,244.21,0,0,0-35.68,0,6.28,6.28,0,0,1-6.76-5.54h0a6.19,6.19,0,0,1,5.86-6.64,254.83,254.83,0,0,1,37.48,0,6.19,6.19,0,0,1,5.86,6.64h0A6.28,6.28,0,0,1,167.84,206.4Z"/><path class="cls-16" d="M136.41,199.55l-2,.12c-.05-.72-.07-1.08-.12-1.81,1.29-.08,2.51-.51,2.51-1.93l2.69-.13.35,8.32c-1.25,0-1.88.08-3.13.15C136.57,202.38,136.52,201.44,136.41,199.55Z"/><path class="cls-16" d="M141.18,198.44c-.06-1.7,1.38-2.92,3.78-3,2.81-.05,3.94,1.83,3.95,4.17,0,2.68-1.42,4.43-4.13,4.48a7.72,7.72,0,0,1-3.12-.54c.15-.85.22-1.28.37-2.13a6,6,0,0,0,2.19.39c1.17,0,1.51-.44,1.61-1.1a3.34,3.34,0,0,1-1.72.42A2.63,2.63,0,0,1,141.18,198.44Zm3.18,0c0,.43.19.82.63.81s.61-.4.6-.83-.19-.84-.63-.83S144.35,198,144.36,198.44Z"/><path class="cls-16" d="M151,195.59c2.45,0,3.67,0,6.12.1l-.06,2.32-3.29-.07-.12.69.58,0c1.58,0,3.11.83,3.05,2.83s-2,2.68-4.06,2.65a12.24,12.24,0,0,1-3.09-.49c.13-.93.2-1.39.34-2.31a5.85,5.85,0,0,0,2.11.5c.8,0,1.27-.2,1.28-.61s-.59-.69-1.18-.69a5.45,5.45,0,0,0-1.07.1l-1.25-.89C150.61,198.05,150.74,197.23,151,195.59Z"/><path class="cls-16" d="M165.75,196.08c-.06.89-.09,1.34-.14,2.23a9.69,9.69,0,0,0-2.8,5.94c-1.29-.07-1.94-.1-3.24-.15a11.16,11.16,0,0,1,2.49-5.66l-3.6-.15c0-1,.06-1.53.09-2.56C161.43,195.83,162.87,195.9,165.75,196.08Z"/></svg>